<svg width="16" height="15" viewBox="0 0 16 15" version="1.1" xmlns="http://www.w3.org/2000/svg" xmlns:xlink="http://www.w3.org/1999/xlink">
<title>Group</title>
<desc>Created using Figma</desc>
<g id="Canvas" transform="translate(-6055 -2475)">
<g id="Group">
<g id="Vector">
<use xlink:href="#path0_fill" transform="translate(6055 2475)"/>
</g>
<g id="Vector">
<use xlink:href="#path1_fill" transform="translate(6060.62 2477.16)" fill="#9C3E32"/>
</g>
</g>
</g>
<defs>
<path id="path0_fill" d="M 15.8814 6.21351L 15.8814 6.21347L 13.8384 4.8443L 13.8384 0.26787C 13.8384 0.119934 13.7197 1.08997e-08 13.5734 1.08997e-08L 2.42629 1.08997e-08C 2.27994 1.08997e-08 2.16129 0.119934 2.16129 0.26787L 2.16129 4.84462L 0.118576 6.21347L 0.118611 6.21355C 0.047169 6.26151 0 6.34352 0 6.43674L 0 14.7321C 0 14.8801 0.118647 15 0.264994 15L 15.735 15C 15.8814 15 16 14.8801 16 14.7321L 16 6.43674C 16 6.34352 15.9528 6.26151 15.8814 6.21351ZM 2.16129 7.1503L 1.33009 6.7046L 2.16129 6.7046L 2.16129 7.1503ZM 0.529989 6.88204L 6.62397 10.1497L 0.529989 14.233L 0.529989 6.88204ZM 7.99989 9.87043L 14.8557 14.4643L 1.1441 14.4643L 7.99989 9.87043ZM 9.37592 10.1497L 15.47 6.88204L 15.47 14.2331L 9.37592 10.1497ZM 13.8384 6.7046L 14.6699 6.7046L 13.8384 7.15048L 13.8384 6.7046ZM 14.8557 6.16887L 13.8384 6.16887L 13.8384 5.48705L 14.8557 6.16887ZM 13.3084 0.53574L 13.3084 7.43468L 8.87317 9.81286L 8.14628 9.3258C 8.05756 9.26633 7.9422 9.26633 7.85348 9.3258L 7.12669 9.81279L 2.69128 7.4345L 2.69128 0.53574L 13.3084 0.53574ZM 2.16129 6.16887L 1.14435 6.16887L 2.16129 5.4874L 2.16129 6.16887Z"/>
<path id="path1_fill" d="M 2.37626 4.88316L 4.48752 4.88316C 4.63387 4.88316 4.75251 4.76323 4.75251 4.61529C 4.75251 4.46736 4.63387 4.34742 4.48752 4.34742L 2.37626 4.34742C 1.35822 4.34742 0.529988 3.5102 0.529988 2.48112L 0.529988 2.40208C 0.529988 1.37299 1.35822 0.535775 2.37626 0.535775C 3.39429 0.535775 4.22253 1.37299 4.22253 2.40208L 4.22253 2.5997C 4.22253 2.82246 4.04325 3.00371 3.82284 3.00371C 3.60244 3.00371 3.42316 2.82249 3.42316 2.5997L 3.42316 2.22425C 3.42316 1.58622 2.90967 1.06712 2.27849 1.06712C 1.64731 1.06712 1.13382 1.58618 1.13382 2.22425C 1.13382 2.86228 1.64731 3.38134 2.27849 3.38134C 2.56712 3.38134 2.83095 3.27258 3.03249 3.09375C 3.19657 3.36102 3.48941 3.53942 3.82284 3.53942C 4.33545 3.53942 4.75251 3.11786 4.75251 2.59966L 4.75251 2.40204C 4.75251 1.07755 3.68653 -8.93772e-08 2.37626 -8.93772e-08C 1.06598 -8.93772e-08 -1.59583e-07 1.07755 -1.59583e-07 2.40204L -1.59583e-07 2.48108C -1.59583e-07 3.80561 1.06598 4.88316 2.37626 4.88316ZM 2.27849 2.8456C 1.93955 2.8456 1.66381 2.56687 1.66381 2.22425C 1.66381 1.88163 1.93958 1.60286 2.27849 1.60286C 2.6174 1.60286 2.89317 1.88163 2.89317 2.22425C 2.89317 2.56687 2.61744 2.8456 2.27849 2.8456Z"/>
</defs>
</svg>
