<svg width="16" height="16" viewBox="0 0 16 16" version="1.1" xmlns="http://www.w3.org/2000/svg" xmlns:xlink="http://www.w3.org/1999/xlink">
<title>Group</title>
<desc>Created using Figma</desc>
<g id="Canvas" transform="translate(-6055 -2395)">
<g id="Group">
<g id="Vector">
<use xlink:href="#path0_fill" transform="translate(6055 2395.93)"/>
</g>
<g id="Vector">
<use xlink:href="#path1_fill" transform="translate(6063.27 2397.9)" fill="#9C3E32"/>
</g>
<g id="Vector">
<use xlink:href="#path2_fill" transform="translate(6063.4 2395)" fill="#9C3E32"/>
</g>
</g>
</g>
<defs>
<path id="path0_fill" d="M 12.6519 8.98596C 12.3239 8.64489 11.9282 8.46254 11.5089 8.46254C 11.0929 8.46254 10.6938 8.64151 10.3523 8.98258L 9.2836 10.0463C 9.19568 9.99903 9.10775 9.95513 9.0232 9.91123C 8.90145 9.85045 8.78647 9.79304 8.6884 9.73225C 7.68737 9.09739 6.77764 8.27005 5.90512 7.19957C 5.48239 6.66602 5.19831 6.21689 4.99202 5.76101C 5.26933 5.50774 5.52635 5.24434 5.77661 4.99107C 5.8713 4.89652 5.966 4.79859 6.06069 4.70404C 6.77088 3.99488 6.77088 3.07636 6.06069 2.36721L 5.13744 1.44532C 5.0326 1.34063 4.92438 1.23257 4.82293 1.12451C 4.62001 0.915143 4.40696 0.69902 4.18714 0.496406C 3.85909 0.172222 3.4668 4.63748e-09 3.05421 4.63748e-09C 2.64162 4.63748e-09 2.24256 0.172222 1.90438 0.496406C 1.901 0.499783 1.901 0.499783 1.89761 0.50316L 0.74778 1.66144C 0.314902 2.09368 0.0680257 2.62048 0.0139159 3.2317C -0.0672489 4.21776 0.223591 5.13628 0.446794 5.73737C 0.994656 7.21308 1.81307 8.58073 3.03392 10.0463C 4.51518 11.8124 6.29742 13.2071 8.3333 14.1898C 9.11113 14.5579 10.1494 14.9935 11.3093 15.0678C 11.3804 15.0711 11.4548 15.0745 11.5224 15.0745C 12.3036 15.0745 12.9597 14.7942 13.4737 14.2371C 13.4771 14.2303 13.4839 14.2269 13.4873 14.2202C 13.6631 14.0074 13.866 13.8149 14.0791 13.6089C 14.2245 13.4705 14.3733 13.3253 14.5187 13.1733C 14.8535 12.8255 15.0294 12.4203 15.0294 12.0049C 15.0294 11.5862 14.8502 11.1843 14.5086 10.8466L 12.6519 8.98596ZM 13.8626 12.5418C 13.8593 12.5418 13.8593 12.5452 13.8626 12.5418C 13.7308 12.6837 13.5955 12.812 13.4501 12.9538C 13.2302 13.1632 13.007 13.3827 12.7974 13.6292C 12.4558 13.9939 12.0534 14.1661 11.5258 14.1661C 11.4751 14.1661 11.4209 14.1661 11.3702 14.1628C 10.3658 14.0986 9.43241 13.7069 8.73236 13.3726C 6.81823 12.4473 5.13744 11.1337 3.74073 9.46886C 2.58751 8.08095 1.81645 6.79772 1.30579 5.41994C 0.991275 4.57909 0.876291 3.92397 0.927019 3.30599C 0.960838 2.9109 1.11302 2.58334 1.39372 2.30305L 2.54693 1.15153C 2.71264 0.996189 2.8885 0.911766 3.06098 0.911766C 3.27403 0.911766 3.44651 1.04009 3.55473 1.14815C 3.55811 1.15153 3.56149 1.1549 3.56487 1.15828C 3.77117 1.35076 3.96731 1.55 4.17361 1.76275C 4.27845 1.87081 4.38667 1.97887 4.49489 2.09031L 5.41813 3.0122C 5.77661 3.37016 5.77661 3.70109 5.41813 4.05905C 5.32006 4.15698 5.22537 4.25491 5.12729 4.34946C 4.84322 4.63987 4.57267 4.91003 4.27845 5.17343C 4.27168 5.18018 4.26492 5.18356 4.26154 5.19031C 3.9707 5.48073 4.02481 5.76439 4.08568 5.95687C 4.08906 5.967 4.09244 5.97713 4.09583 5.98726C 4.33594 6.56809 4.67412 7.11515 5.18817 7.76689L 5.19155 7.77027C 6.12494 8.91842 7.10907 9.8133 8.19464 10.4988C 8.3333 10.5866 8.47534 10.6575 8.61061 10.7251C 8.73236 10.7859 8.84734 10.8433 8.94542 10.904C 8.95895 10.9108 8.97247 10.9209 8.986 10.9277C 9.10098 10.9851 9.2092 11.0121 9.3208 11.0121C 9.6015 11.0121 9.77736 10.8365 9.83485 10.7791L 10.9914 9.62419C 11.1064 9.50938 11.289 9.37093 11.5021 9.37093C 11.7118 9.37093 11.8843 9.50262 11.9891 9.61744C 11.9925 9.62082 11.9925 9.62082 11.9959 9.62419L 13.8593 11.4849C 14.2076 11.8293 14.2076 12.1839 13.8626 12.5418Z"/>
<path id="path1_fill" d="M 0.3758 0.904361C 1.26185 1.05295 2.06673 1.47168 2.70929 2.1133C 3.35184 2.75491 3.76781 3.55861 3.91999 4.44336C 3.95719 4.66624 4.14996 4.82158 4.36978 4.82158C 4.39684 4.82158 4.42051 4.8182 4.44756 4.81482C 4.69782 4.7743 4.86353 4.53792 4.82295 4.28803C 4.64033 3.21754 4.13305 2.24162 3.3586 1.46831C 2.58416 0.694993 1.6068 0.188457 0.534748 0.00610345C 0.284491 -0.0344195 0.0511417 0.131049 0.00717748 0.377564C -0.0367867 0.624078 0.125543 0.863838 0.3758 0.904361Z"/>
<path id="path2_fill" d="M 7.59163 7.05794C 7.29064 5.29519 6.4587 3.69116 5.18036 2.41469C 3.90202 1.13822 2.29563 0.307495 0.530297 0.00695018C 0.283421 -0.0369496 0.0500728 0.131896 0.00610856 0.37841C -0.0344738 0.628302 0.131238 0.861308 0.381496 0.905208C 1.95744 1.17198 3.39474 1.91828 4.53781 3.0563C 5.68088 4.1977 6.42489 5.63288 6.69205 7.20652C 6.72925 7.4294 6.92202 7.58474 7.14184 7.58474C 7.1689 7.58474 7.19257 7.58136 7.21962 7.57798C 7.4665 7.54084 7.63559 7.30445 7.59163 7.05794Z"/>
</defs>
</svg>
