<svg width="12" height="18" viewBox="0 0 12 18" version="1.1" xmlns="http://www.w3.org/2000/svg" xmlns:xlink="http://www.w3.org/1999/xlink">
<title>Group</title>
<desc>Created using Figma</desc>
<g id="Canvas" transform="translate(-4548 -1634)">
<g id="Group">
<g id="Vector">
<use xlink:href="#path0_fill" transform="translate(4548 1634)"/>
</g>
<g id="Vector">
<use xlink:href="#path1_fill" transform="translate(4550.67 1636.68)" fill="#9C3E32"/>
</g>
</g>
</g>
<defs>
<path id="path0_fill" d="M 6 0C 2.69161 0 2.63407e-08 2.74041 2.63407e-08 6.10884C 2.63407e-08 7.46244 0.782718 9.52102 2.46327 12.5872C 3.61006 14.6794 4.75155 16.4466 4.79971 16.5211L 5.62475 17.7943C 5.70794 17.9227 5.84888 18 6 18C 6.15112 18 6.29206 17.9227 6.37525 17.7943L 7.20026 16.5211C 7.24795 16.4475 8.38113 14.6956 9.53673 12.5872C 11.2173 9.52116 12 7.46258 12 6.10884C 12 2.74041 9.30839 0 6 0ZM 8.75163 12.1411C 7.61212 14.22 6.49684 15.9445 6.44984 16.0169L 6 16.7111L 5.55031 16.0171C 5.50305 15.9441 4.37922 14.2042 3.24837 12.1411C 1.68951 9.29692 0.899097 7.26734 0.899097 6.10884C 0.899097 3.24517 3.18734 0.915412 6 0.915412C 8.81266 0.915412 11.1009 3.24517 11.1009 6.10884C 11.1009 7.26749 10.3105 9.297 8.75163 12.1411Z"/>
<path id="path1_fill" d="M 3.32666 1.34094e-08C 1.49232 1.34094e-08 1.31704e-08 1.51944 1.31704e-08 3.38702C 1.31704e-08 5.25461 1.49232 6.77405 3.32666 6.77405C 5.161 6.77405 6.65332 5.25461 6.65332 3.38702C 6.65332 1.51944 5.161 1.34094e-08 3.32666 1.34094e-08ZM 3.32666 5.85864C 1.98808 5.85864 0.899097 4.74989 0.899097 3.38702C 0.899097 2.02416 1.98808 0.915412 3.32666 0.915412C 4.66527 0.915412 5.75422 2.02416 5.75422 3.38702C 5.75422 4.74989 4.66527 5.85864 3.32666 5.85864Z"/>
</defs>
</svg>
